# xmcd
#
# Track frame offsets:
#	150
#	25640
#	42298
#	68848
#	104823
#	130604
#	146319
#	162376
#	180085
#	198246
#	219712
#	238075
#	258555
#	280506
#	300815
#	325664
#
# Disc length: 4598 seconds
#
# Revision: 0
# Processed by: cddbd v1.4PL0 Copyright (c) Steve Scherf et al.
# Submitted via: dBpowerAMP V4.0
#
DISCID=d411f410
DTITLE=Dire Straits - Sultans of Swing - The best of
DYEAR=1900
DGENRE=
TTITLE0=Sultans of Swing
TTITLE1=Lady Writer
TTITLE2=Romeo and Juliet
TTITLE3=Tunnel of Love
TTITLE4=Private Investigations
TTITLE5=Twisting by the pool
TTITLE6=Love Over Gold (Live)
TTITLE7=So Far Away
TTITLE8=Money for Nothing
TTITLE9=Brothers in Arms
TTITLE10=Walk of Life
TTITLE11=Calling Elvis
TTITLE12=Heavy Fuel
TTITLE13=On Every Street
TTITLE14=Your Latest Trick (Live)
TTITLE15=Local Hero_Wild Theme (Live)
EXTD=
EXTT0=
EXTT1=
EXTT2=
EXTT3=
EXTT4=
EXTT5=
EXTT6=
EXTT7=
EXTT8=
EXTT9=
EXTT10=
EXTT11=
EXTT12=
EXTT13=
EXTT14=
EXTT15=
PLAYORDER=
